<svg width="22" height="22" viewBox="0 0 22 22" fill="none" xmlns="http://www.w3.org/2000/svg">
<path d="M17.4166 3.66665H15.5833V2.74998C15.5833 2.50686 15.4867 2.27371 15.3148 2.1018C15.1429 1.92989 14.9097 1.83331 14.6666 1.83331C14.4235 1.83331 14.1903 1.92989 14.0184 2.1018C13.8465 2.27371 13.7499 2.50686 13.7499 2.74998V3.66665H8.24992V2.74998C8.24992 2.50686 8.15334 2.27371 7.98143 2.1018C7.80952 1.92989 7.57637 1.83331 7.33325 1.83331C7.09014 1.83331 6.85698 1.92989 6.68507 2.1018C6.51316 2.27371 6.41658 2.50686 6.41658 2.74998V3.66665H4.58325C3.85391 3.66665 3.15443 3.95638 2.63871 4.4721C2.12298 4.98783 1.83325 5.6873 1.83325 6.41665V17.4166C1.83325 18.146 2.12298 18.8455 2.63871 19.3612C3.15443 19.8769 3.85391 20.1666 4.58325 20.1666H17.4166C18.1459 20.1666 18.8454 19.8769 19.3611 19.3612C19.8769 18.8455 20.1666 18.146 20.1666 17.4166V6.41665C20.1666 5.6873 19.8769 4.98783 19.3611 4.4721C18.8454 3.95638 18.1459 3.66665 17.4166 3.66665ZM18.3333 17.4166C18.3333 17.6598 18.2367 17.8929 18.0648 18.0648C17.8929 18.2367 17.6597 18.3333 17.4166 18.3333H4.58325C4.34014 18.3333 4.10698 18.2367 3.93507 18.0648C3.76316 17.8929 3.66659 17.6598 3.66659 17.4166V11H18.3333V17.4166ZM18.3333 9.16665H3.66659V6.41665C3.66659 6.17353 3.76316 5.94037 3.93507 5.76847C4.10698 5.59656 4.34014 5.49998 4.58325 5.49998H6.41658V6.41665C6.41658 6.65976 6.51316 6.89292 6.68507 7.06483C6.85698 7.23674 7.09014 7.33331 7.33325 7.33331C7.57637 7.33331 7.80952 7.23674 7.98143 7.06483C8.15334 6.89292 8.24992 6.65976 8.24992 6.41665V5.49998H13.7499V6.41665C13.7499 6.65976 13.8465 6.89292 14.0184 7.06483C14.1903 7.23674 14.4235 7.33331 14.6666 7.33331C14.9097 7.33331 15.1429 7.23674 15.3148 7.06483C15.4867 6.89292 15.5833 6.65976 15.5833 6.41665V5.49998H17.4166C17.6597 5.49998 17.8929 5.59656 18.0648 5.76847C18.2367 5.94037 18.3333 6.17353 18.3333 6.41665V9.16665Z" fill="#BEBEBE"/>
</svg>
