<svg width="18" height="18" viewBox="0 0 18 18" fill="none" xmlns="http://www.w3.org/2000/svg">
<path fill-rule="evenodd" clip-rule="evenodd" d="M11 0V2H2V16H16V7H18V17C18 17.2652 17.8946 17.5196 17.7071 17.7071C17.5196 17.8946 17.2652 18 17 18H1C0.734784 18 0.48043 17.8946 0.292893 17.7071C0.105357 17.5196 0 17.2652 0 17V1C0 0.734784 0.105357 0.48043 0.292893 0.292893C0.48043 0.105357 0.734784 0 1 0H11ZM16.94 0.354L17.647 1.061C17.7407 1.15476 17.7934 1.28192 17.7934 1.4145C17.7934 1.54708 17.7407 1.67424 17.647 1.768L8.314 11.1L6.322 12.08C6.26575 12.1079 6.20217 12.1174 6.14022 12.1072C6.07827 12.0971 6.02107 12.0677 5.97668 12.0233C5.93229 11.9789 5.90295 11.9217 5.89278 11.8598C5.88261 11.7978 5.89213 11.7343 5.92 11.678L6.9 9.686L16.233 0.353C16.3268 0.259264 16.4539 0.206607 16.5865 0.206607C16.7191 0.206607 16.8462 0.259264 16.94 0.353V0.354Z" fill="white"/>
</svg>
