<svg width="36" height="36" viewBox="0 0 36 36" fill="none" xmlns="http://www.w3.org/2000/svg">
<path d="M16.5807 25.097H19.4194V16.5808H16.5807V25.097ZM18 13.7421C18.4022 13.7421 18.7395 13.6059 19.012 13.3334C19.2845 13.0608 19.4203 12.724 19.4194 12.3228C19.4184 11.9216 19.2822 11.5847 19.0106 11.3122C18.739 11.0397 18.4022 10.9034 18 10.9034C17.5979 10.9034 17.261 11.0397 16.9894 11.3122C16.7179 11.5847 16.5816 11.9216 16.5807 12.3228C16.5797 12.724 16.716 13.0613 16.9894 13.3348C17.2629 13.6082 17.5997 13.744 18 13.7421ZM18 32.1937C16.0366 32.1937 14.1914 31.8209 12.4645 31.0753C10.7376 30.3297 9.23549 29.3186 7.95807 28.0421C6.68065 26.7657 5.6696 25.2635 4.92491 23.5357C4.18022 21.8078 3.80741 19.9627 3.80646 18.0002C3.80551 16.0377 4.17833 14.1925 4.92491 12.4647C5.67149 10.7369 6.68255 9.23473 7.95807 7.95825C9.2336 6.68178 10.7358 5.67073 12.4645 4.92509C14.1933 4.17946 16.0385 3.80664 18 3.80664C19.9616 3.80664 21.8067 4.17946 23.5355 4.92509C25.2643 5.67073 26.7664 6.68178 28.0419 7.95825C29.3175 9.23473 30.329 10.7369 31.0765 12.4647C31.8241 14.1925 32.1964 16.0377 32.1936 18.0002C32.1907 19.9627 31.8179 21.8078 31.0751 23.5357C30.3323 25.2635 29.3213 26.7657 28.0419 28.0421C26.7626 29.3186 25.2605 30.3301 23.5355 31.0767C21.8105 31.8233 19.9653 32.1956 18 32.1937Z" fill="white" fill-opacity="0.83"/>
</svg>
