<svg width="64" height="82" viewBox="0 0 64 82" fill="none" xmlns="http://www.w3.org/2000/svg">
<path d="M57.875 9.375H49.25V6.5C49.25 4.97501 48.6442 3.51247 47.5659 2.43414C46.4875 1.3558 45.025 0.75 43.5 0.75H20.5C18.975 0.75 17.5125 1.3558 16.4341 2.43414C15.3558 3.51247 14.75 4.97501 14.75 6.5V9.375H6.125C4.60001 9.375 3.13747 9.9808 2.05914 11.0591C0.980802 12.1375 0.375 13.6 0.375 15.125V75.5C0.375 77.025 0.980802 78.4875 2.05914 79.5659C3.13747 80.6442 4.60001 81.25 6.125 81.25H57.875C59.4 81.25 60.8625 80.6442 61.9409 79.5659C63.0192 78.4875 63.625 77.025 63.625 75.5V15.125C63.625 13.6 63.0192 12.1375 61.9409 11.0591C60.8625 9.9808 59.4 9.375 57.875 9.375ZM20.5 6.5H43.5V18H20.5V6.5ZM57.875 75.5H6.125V15.125H14.75V23.75H49.25V15.125H57.875V75.5Z" fill="white"/>
</svg>
