<svg width="92" height="92" viewBox="0 0 92 92" fill="none" xmlns="http://www.w3.org/2000/svg">
<path d="M40.25 66.125H63.25V71.875H40.25V66.125ZM28.75 66.125H34.5V71.875H28.75V66.125ZM40.25 51.75H63.25V57.5H40.25V51.75ZM28.75 51.75H34.5V57.5H28.75V51.75ZM40.25 37.375H63.25V43.125H40.25V37.375ZM28.75 37.375H34.5V43.125H28.75V37.375Z" fill="white"/>
<path d="M71.875 14.375H63.25V11.5C63.25 9.97501 62.6442 8.51247 61.5659 7.43414C60.4875 6.3558 59.025 5.75 57.5 5.75H34.5C32.975 5.75 31.5125 6.3558 30.4341 7.43414C29.3558 8.51247 28.75 9.97501 28.75 11.5V14.375H20.125C18.6 14.375 17.1375 14.9808 16.0591 16.0591C14.9808 17.1375 14.375 18.6 14.375 20.125V80.5C14.375 82.025 14.9808 83.4875 16.0591 84.5659C17.1375 85.6442 18.6 86.25 20.125 86.25H71.875C73.4 86.25 74.8625 85.6442 75.9409 84.5659C77.0192 83.4875 77.625 82.025 77.625 80.5V20.125C77.625 18.6 77.0192 17.1375 75.9409 16.0591C74.8625 14.9808 73.4 14.375 71.875 14.375ZM34.5 11.5H57.5V23H34.5V11.5ZM71.875 80.5H20.125V20.125H28.75V28.75H63.25V20.125H71.875V80.5Z" fill="white"/>
</svg>
