<svg width="62" height="78" viewBox="0 0 62 78" fill="none" xmlns="http://www.w3.org/2000/svg">
<path d="M54 0.666626C56.0334 0.666626 57.9834 1.47436 59.4212 2.91214C60.859 4.34992 61.6667 6.29997 61.6667 8.33329V69.6666C61.6667 71.7 60.859 73.65 59.4212 75.0878C57.9834 76.5256 56.0334 77.3333 54 77.3333H8.00004C5.96671 77.3333 4.01667 76.5256 2.57889 75.0878C1.14111 73.65 0.333374 71.7 0.333374 69.6666V8.33329C0.333374 6.29997 1.14111 4.34992 2.57889 2.91214C4.01667 1.47436 5.96671 0.666626 8.00004 0.666626H54ZM54 8.33329H34.8334V39L25.25 30.375L15.6667 39V8.33329H8.00004V69.6666H54V8.33329Z" fill="white"/>
</svg>
