<svg width="62" height="78" viewBox="0 0 62 78" fill="none" xmlns="http://www.w3.org/2000/svg">
<path d="M61.6666 23.6666L38.6666 0.666626H7.99992C5.96659 0.666626 4.01655 1.47436 2.57877 2.91214C1.14099 4.34992 0.333252 6.29997 0.333252 8.33329V69.6666C0.333252 71.7 1.14099 73.65 2.57877 75.0878C4.01655 76.5256 5.96659 77.3333 7.99992 77.3333H53.9999C56.0332 77.3333 57.9833 76.5256 59.4211 75.0878C60.8588 73.65 61.6666 71.7 61.6666 69.6666V23.6666ZM19.4999 65.8333H11.8333V31.3333H19.4999V65.8333ZM34.8333 65.8333H27.1666V42.8333H34.8333V65.8333ZM50.1666 65.8333H42.4999V54.3333H50.1666V65.8333ZM38.6666 27.5H34.8333V8.33329L53.9999 27.5H38.6666Z" fill="white"/>
</svg>
