<svg width="22" height="21" viewBox="0 0 22 21" fill="none" xmlns="http://www.w3.org/2000/svg">
<path d="M1 4.66667H21M9 9.25V13.8333M13 9.25V13.8333M3 4.66667H19L17.42 17.7017C17.3658 18.1503 17.1331 18.5648 16.7663 18.8658C16.3994 19.1669 15.9244 19.3334 15.432 19.3333H6.568C6.07564 19.3334 5.60056 19.1669 5.23375 18.8658C4.86693 18.5648 4.63416 18.1503 4.58 17.7017L3 4.66667ZM6.345 2.05142C6.50675 1.73697 6.76271 1.47116 7.083 1.285C7.4033 1.09884 7.77474 0.999996 8.154 1H13.846C14.2254 0.999822 14.5971 1.09858 14.9176 1.28476C15.2381 1.47093 15.4942 1.73683 15.656 2.05142L17 4.66667H5L6.345 2.05142Z" stroke="white" stroke-width="2" stroke-linecap="round" stroke-linejoin="round"/>
</svg>
